<?xml version="1.0" encoding="utf-8"?>
<!-- Generator: Adobe Illustrator 16.0.4, SVG Export Plug-In . SVG Version: 6.00 Build 0)  -->
<!DOCTYPE svg PUBLIC "-//W3C//DTD SVG 1.1//EN" "http://www.w3.org/Graphics/SVG/1.1/DTD/svg11.dtd">
<svg version="1.1" id="Layer_1" xmlns="http://www.w3.org/2000/svg" xmlns:xlink="http://www.w3.org/1999/xlink" x="0px" y="0px"
	 width="508.699px" height="234.647px" viewBox="0 0 508.699 234.647" enable-background="new 0 0 508.699 234.647"
	 xml:space="preserve">
<g>
	<path fill-rule="evenodd" clip-rule="evenodd" stroke="#000000" stroke-width="3" stroke-miterlimit="10" d="M154.469,75.611
		c0.7-0.785,4.441-6.133,5.556-3.992c1.331,2.555-2.159,5.576-3.408,7.445c-3.862,5.787-9.725,12.264-10.065,19.488
		c-0.372,7.919,4.836,9.469,11.387,6.314c5.848-2.816,10.041-9.304,13.552-14.491c3.465-5.121,5.96-11.101,9.855-15.887
		c2.017-2.477,3.773-5.674,6.157-7.796c0.866-0.773,2.074-0.118,2.354,0.947c0.467,1.78-2.833,4.809-3.741,6.133
		c-3.986,5.821-8.021,11.647-11.243,17.932c-1.433,2.794-2.956,5.607-3.611,8.706c-0.394,1.864-0.824,9.513,3.128,7.389
		c6.312-3.391,12.077-6.802,16.289-12.769c4.538-6.426,9.556-13.024,13.129-20.043c1.548-3.041,3.46-5.824,5.458-8.584
		c1.106-1.527,3.808-3.173,3.23,0.326c-0.388,2.35-3.189,5.29-4.383,7.313c-2.171,3.684-3.647,7.578-5.515,11.402
		c-1.653,3.383-3.435,6.704-5.08,10.091c-1.162,2.389-4.208,6.538-3.677,9.313c1.252,6.548,15.074-2.685,17.345-4.345
		c5.449-3.981,10.761-8.667,14.973-13.956c0.769-0.964,2.54-2.676,2.53-4.039c-0.011-1.358-1.565-2.995-2.019-4.265
		c-1.31-3.678-0.514-7.967,0.581-11.615c1.667-5.551,9.787-6.699,10.771-0.223c0.512,3.369-0.798,6.332-2.067,9.362
		c-1.167,2.788-4.803,6.505-1.237,8.239c2.289,1.113,5.261,1.456,7.583,0.191c4.429-2.415,0.861,4.307,0.258,5.131
		c-3.322,4.551-4.588,14.538,2.009,17.176c4.814,1.926,14.704-2.851,18.182-6.072c3.479-3.225,1.777-3.638,0.067-7.421
		c-1.795-3.974-0.931-8.066,0.222-12.092c1.751-6.095,4.712-11.631,9.95-15.406c5.587-4.025,12.955-2.622,12.474,5.392
		c-0.44,7.321-5.396,12.939-9.466,18.715c-1.932,2.744-3.982,5.369-6.119,7.958c-1.718,2.089,6.026,4.389,7.283,4.534
		c6.627,0.771,13.974-0.396,19.88-3.601c2.582-1.397,5.372-2.948,7.732-4.692c1.815-1.344,5.638-4.905,6.128-7.133
		c0.659-3.007-0.613-6.931-0.812-9.988c-0.242-3.697-0.315-7.409-0.105-11.108c0.45-7.916,2.02-15.811,4.319-23.391
		c3.376-11.142,11.847-29.218,24.58-32.238c7.937-1.882,9.048,9.13,9.708,14.489c1.067,8.675-1.573,14.502-5.349,22.077
		c-3.323,6.667-7.248,13.212-11.073,19.61c-4.042,6.758-8.074,14.093-14.149,19.233c-3.229,2.731-3.606,3.204-1.981,7.36
		c1.45,3.71,3.505,7.212,5.9,10.39c4.219,5.6,9.845,10.022,16.516,12.296c8.179,2.789,15.666,2.702,23.833-0.041
		c3.834-1.289,7.298-3.297,10.837-5.214c0.7-0.38,7.307-5.559,7.578-3.721c0.496,3.399-8.582,7.28-10.759,8.346
		c-5.491,2.689-12.158,5.482-18.371,5.692c-11.479,0.382-22.961-5.357-30.372-13.875c-3.493-4.012-5.923-8.672-8.083-13.494
		c-1.336-2.982-1.776-2.153-3.565,0.024c-1.92,2.339-4.242,3.566-6.79,5.075c-9.045,5.363-22.064,10.691-32.204,4.534
		c-2.416-1.464-3.064-3.341-5.445-0.954c-1.687,1.689-3.163,2.866-5.322,3.89c-4.38,2.078-11.052,5.29-15.95,3.446
		c-4.806-1.809-7.082-7.125-7.15-11.966c-0.042-2.859,0.775-5.639,2.171-8.119c1.163-2.066-4.066-1.923-5.602-2.747
		c-3.077-1.647-3.392-0.407-5.56,2.08c-1.878,2.152-3.757,4.306-5.757,6.345c-4.434,4.523-9.197,8.264-14.677,11.424
		c-4.485,2.586-9.227,4.855-14.406,2.32c-4.839-2.369,0.36-10.957,1.761-14.213c-5.128,5.585-8.796,10.394-15.628,14.222
		c-3.185,1.785-6.182,3.95-9.435,0.852c-0.922-0.878-1.573-2.013-1.797-3.271c-0.146-0.814,0.639-5.352-0.102-5.611
		c-1.121-0.394-3.776,3.91-4.456,4.479c-2.358,1.97-5.743,3.446-8.716,4.123c-7.63,1.736-9.751-3.134-11.61-9.147
		c-6.212,4.955-13.335,16.507-22.902,11.529c-8.83-4.596-3.459-20.996-0.053-27.626c4.111-8.006,12.967-19.49,22.625-20.61
		c4.324-0.503,9.702,1.618,11.45,5.871c0.753,1.833,1.37,5.881-0.248,7.178c-1.259,1.01-3.157,0.953-3.218-1.027
		c-0.12-3.916,1.139-7.134-3.986-8.774c-4.894-1.565-9.982,2.527-13.434,5.5c-8.046,6.934-13.335,16.642-14.271,27.248
		c-0.369,4.188-0.732,9.39,4.417,10.65c6.052,1.479,9.002-3.904,13.08-6.915c3.875-2.865,6.275-7.072,8.532-11.226
		C147.851,86.21,151.09,80.859,154.469,75.611C155.43,74.534,153.782,76.679,154.469,75.611z M312.438,71.292
		c0.359,4.456,0.266,9.215,1.471,13.524c10.379-5.755,15.185-19.836,21.359-29.32c7.192-11.047,14.125-23.365,9.827-36.814
		c-2.011-6.288-4.286-7.403-9.912-3.452c-5.252,3.689-9.293,8.962-12.468,14.481C315.698,41.906,312.582,57.316,312.438,71.292
		C312.748,75.154,312.52,63.274,312.438,71.292z M264.62,87.641c-0.131,1.862,0.674,7.608,3.201,8.04
		c1.596,0.273,5.334-6.387,6.137-7.504c4.411-6.151,7.978-10.929,9.095-18.532c1.22-8.288-10.072-0.769-11.908,1.433
		C267.234,75.764,265.098,81.588,264.62,87.641C264.424,90.453,265.201,80.312,264.62,87.641z M235.954,67.731
		c-0.706-2.754-1.403-4.224-4.092-2.056c-3.169,2.556-3.631,7.479-2.724,11.225C231.218,85.501,235.233,70.47,235.954,67.731
		C235.739,66.899,235.612,69.024,235.954,67.731z"/>
	<path fill-rule="evenodd" clip-rule="evenodd" stroke="#000000" stroke-width="3" stroke-miterlimit="10" d="M174.249,155.76
		c14.692-2.845,27.583-6.69,38.017-18.111c2.229-2.439,4.266-5.071,5.893-7.954c1.218-2.159,1.805-5.733,4.19-6.947
		c2.917-1.485,2.546,1.199,1.764,2.918c-1.546,3.404-3.002,6.41-5.252,9.404c-9.037,12.019-21.093,18.105-35.456,21.778
		c-15.254,3.904-29.94-0.922-43.707-7.568c-6.297-3.044-11.958-7.266-17.778-11.108c-6.65-4.395-13.336-9.341-18.963-15.004
		c-5.31-5.343-10.323-10.969-15.336-16.585c-2.37-2.658-4.81-5.25-7.211-7.879c-3.678-4.022-3.469-3.619-5.694,1.106
		c-6.223,13.209-13.24,25.966-26.898,32.647c-12.321,6.029-30.757,2.772-39.327-8.45c-2.353-3.081-4.624-6.655-5.931-10.317
		c-1.801-5.045-0.986-8.255,0.095-13.294c1.843-8.591,8.16-15.394,15.147-20.324c7.901-5.575,18.159-6.359,27.565-4.497
		c4.58,0.908,9.406,1.383,13.656,3.432c3.897,1.879,7.116,4.717,10.74,7.022c0.698,0.445,4.239,3.283,5.071,2.601
		c1.258-1.031,1.595-5.036,2.003-6.552c1.369-5.099,2.552-10.245,3.952-15.335c1.352-4.916,2.854-9.787,4.262-14.686
		c0.667-2.321-6.942-1.166-8.868-1.469c-7.826-1.231-14.495-6.216-19.245-12.391c-2.695-3.503-4.437-7.493-5.487-11.774
		c-0.452-1.842-1.962-9.552,1.304-9.915c2.728-0.303,1.688,5.115,1.77,6.373c0.203,3.129,1.169,6.253,2.532,9.064
		c2.784,5.748,7.452,10.541,13.198,13.345c3.287,1.605,14.886,5.879,16.505,0.371c2.351-7.998,4.678-16.003,7.177-23.958
		c1.936-6.161,4.416-13.388,9.434-17.795c6.058-5.324,12.302-1.146,13.647,5.939c0.677,3.576-0.397,6.889-1.551,10.234
		c-1.078,3.124-1.49,6.681-2.931,9.633c-2.892,5.919-8.745,11.208-13.745,15.307c-2.617,2.146-5.51,2.828-8.335,4.456
		c-2.613,1.506-3.051,5.009-3.856,7.616c-2.475,8.013-4.371,16.206-6.438,24.331c-0.648,2.544-2.568,6.628-2.27,9.27
		c0.276,2.455,4.285,5.073,5.901,6.729c5.694,5.835,10.705,12.302,16.304,18.228c10.633,11.251,23.45,20.48,36.567,28.634
		c6.245,3.877,12.892,5.199,19.503,8.018C162.064,154.818,167.86,155.678,174.249,155.76
		C176.018,155.418,165.815,155.649,174.249,155.76z M33.382,133.625c7.904-1.66,14.81-3.053,21.146-8.427
		c6.523-5.53,11.178-13.178,14.894-20.805c1.63-3.35,3.387-7.023,4.324-10.64c0.749-2.887-6.073-5.426-7.944-6.695
		c-3.276-2.219-6.367-4.63-10.105-6.058c-4.197-1.6-9.233-2.076-13.677-2.651c-7.403-0.958-15.334-0.504-21.622,3.807
		C13.276,87.04,8.695,93.082,6.037,101.234c-1.23,3.77-2.308,6.915-0.983,10.863c1.332,3.965,3.563,8.05,6.329,11.192
		C17.01,129.683,25.505,131.483,33.382,133.625C36.825,132.902,30.767,132.914,33.382,133.625z M114.343,11.787
		c-0.897-2.292-1.908-7.771-5.467-6.856c-3.539,0.91-5.748,4.677-7.522,7.577c-4.56,7.449-7.042,17.328-9.208,25.729
		c-0.613,2.379-1.19,4.768-1.759,7.157c-0.43,1.809,3.321-0.62,3.577-0.746c3.535-1.721,7.606-4.946,9.716-8.291
		c2.289-3.628,5.191-6.19,6.609-10.342C111.897,21.312,113.333,16.647,114.343,11.787C113.785,10.357,113.945,13.704,114.343,11.787
		z"/>
	<path fill-rule="evenodd" clip-rule="evenodd" stroke="#000000" stroke-width="3" stroke-miterlimit="10" d="M427.36,214.454
		c7.624,0.715,12.766-6.863,18.969-9.676c-0.688,3.467-6.843,7.356-9.749,9.112c-4.607,2.781-9.996,3.919-15.307,2.88
		c-4.952-0.969-10.038-3.708-12.541-8.257c-3.137-5.705,0.727-9.933,0.56-15.553c-3.627,1.634-7.157,5.608-10.116,8.275
		c-3.586,3.232-7.694,6.121-11.803,8.648c-3.225,1.987-8.021,1.899-10.837-0.806c-2.775-2.664-2.354-6.492-2.083-9.973
		c-7.864,6.588-16.609,15.525-27.653,15.161c-4.812-0.161-10.904-2.404-11.064-8.057c-0.157-5.62,2.29-9.03,4.33-13.895
		c-2.941-0.54-5.742-0.712-8.377-2.317c-3.595-2.186-3.33-0.922-5.965,2.276c-4.844,5.882-10.554,10.852-16.751,15.252
		c-4.692,3.332-11.55,7.187-17.558,6.156c-1.949-0.335-6.784-1.199-5.769-4.219c0.184-0.549,7.33,1.465,8.523,1.389
		c6.238-0.388,12.193-4.167,16.921-7.954c5.065-4.059,12.553-9.591,15.336-15.637c0.957-2.081-2.431-5.815-2.655-8.139
		c-0.266-2.751,1.15-5.208,3.076-7.072c7.026-6.799,8.076,3.892,5.949,8.995c-1.243,2.982-3.055,4.249,0.385,6.312
		c2.615,1.567,5.605,2.346,8.655,1.993c1.643-0.189,4.738-5.001,5.628-1.383c0.26,1.05,1.854,1.167,0.888,2.145
		c-0.935,0.945-2.595,0.508-3.703,1.765c-3.344,3.8-7.079,9.852-5.632,15.194c1.902,7.015,13.452,3.924,17.852,1.98
		c5.798-2.559,10.618-7.787,15.186-12.051c2.36-2.206,4.248-3.919,5.61-6.856c1.605-3.473,3.064-6.91,5.871-9.609
		c1.06-1.018,5.15-5.1,5.871-2.101c0.586,2.437-2.288,5.437-3.496,7.321c-3.937,6.156-9.638,10.489-8.436,18.817
		c1.847,12.766,26.109-10.787,29.366-13.107c4.972-3.542,7.554-8.616,12.068-12.515c3.69-3.189,11.738-7.688,16.136-3.479
		c1.179,1.13,4.779,4.141,2.739,5.871c-2.062,1.754-4.931-3.32-7.125-3.486c-2.988-0.226-6.665,3.746-8.885,5.392
		c-2.629,1.952-5.349,3.659-7.245,6.396c-2.699,3.898-5.334,11.697-3.712,16.39C413.053,212.499,421.363,214.471,427.36,214.454
		C429.662,214.669,422.782,214.468,427.36,214.454z M331.594,174.955c-0.21-0.555-0.423-1.109-0.633-1.661
		c-3.187,1.419-4.917,4.438-3.37,7.876C329.771,186.013,331.337,176.626,331.594,174.955
		C331.384,174.4,331.189,177.583,331.594,174.955z"/>
	<path fill-rule="evenodd" clip-rule="evenodd" stroke="#000000" stroke-width="3" stroke-miterlimit="10" d="M439.638,113.326
		c-14.26-0.948-27.65-8.337-32.515-22.478c-4.537-13.189-0.216-32.444,10.937-41.505c5.177-4.208,10.061-8.017,16.404-10.347
		c3.066-1.126,4.581-0.429,4.135-4.238c-0.473-4.015,0.54-7.961,1.745-11.757c1.894-5.966,9.996-8.386,15.637-6.428
		c6.35,2.206,9.9,10.523,7.978,16.778c-0.691,2.245-3.662,1.625-2.679-0.658c1.016-2.357,0.362-5.143-0.659-7.375
		c-2.483-5.429-7.712-7.711-13.376-5.36c-5.859,2.432-6.127,10.968-5.409,16.356c0.309,2.305,3.968,2.368,5.587,3.481
		c3.044,2.089,4.433,4.563,1.413,7.184c-2.577,2.234-5.472-1.855-7.126-3.541c-2.818-2.87-4.718-2.067-8.31-0.609
		c-6.44,2.614-12.396,7.189-16.642,12.683c-8.441,10.926-12.036,27.64-4.266,39.92c6.938,10.968,21.756,18.248,34.516,13.982
		c6.609-2.209,13.338-4.812,18.27-9.909c4.697-4.856,10.56-12.154,12.371-18.728c0.392-1.419,1.605-6.438-0.099-7.375
		c-2.113-1.161-6.956-0.851-9.259-0.413c-3.805,0.725-12.903,6.386-7.966,11.138c1.348,1.297,5.211-3.283,5.369,0.019
		c0.102,2.196-3.995,3.677-5.679,3.166c-6.729-2.041-3.3-10.722,0.362-13.77c4.082-3.398,8.932-4.051,14.015-3.472
		c7.837,0.893,14.575,0.319,21.113-4.302c4.359-3.083,8.183-8.669,8.658-14.111c0.21-2.412-2.539-4.219-2.355-5.856
		c0.44-3.949,4.745,0.944,5.098,2.476c1.38,6.013-2.375,12.019-6.002,16.437c-4.481,5.458-10.937,7.542-17.527,9.031
		c-2.02,0.455-2.113,1.489-2.11,3.418c0.009,3.195-1.368,6.056-2.967,8.739c-3.647,6.122-7.546,12.86-13.146,17.435
		c-3.438,2.807-8.077,4.525-12.051,6.428C449.25,111.607,443.968,114.029,439.638,113.326
		C433.353,112.908,442.544,113.798,439.638,113.326z M446.492,44.147c0.619-0.84-0.429-1.983-1.243-1.306
		C445.664,43.278,446.078,43.712,446.492,44.147C446.659,43.922,446.028,43.66,446.492,44.147z"/>
	<path fill-rule="evenodd" clip-rule="evenodd" stroke="#000000" stroke-width="3" stroke-miterlimit="10" d="M206.734,198.694
		c0.47,7.902,2.577,15.868,8.196,21.718c4.993,5.194,14.225,9.457,21.354,10.21c8.211,0.866,17.881-2.472,24.653-6.988
		c3.201-2.133,6.119-4.765,8.454-7.829c2.684-3.521,3.513-7.843,6.708-10.875c0.347,14.179-14.575,22.652-26.493,26.495
		c-13.384,4.312-29.827,0.487-38.837-11.013c-9.606-12.258-8.042-28.195-1.584-41.413c2.825-5.777,8.549-10.589,13.579-14.487
		c2.875-2.229,6.076-3.794,9.44-5.139c1.885-0.753,9.731-2.106,10.394-3.919c0.429-1.179-0.371-3.178-0.385-4.426
		c-0.019-1.695,0.213-3.382,0.623-5.025c0.807-3.227,2.225-6.337,3.789-9.261c3.107-5.818,8.29-9.244,14.634-10.849
		c5.953-1.503,13.285,0.11,17.113,5.019c1.541,1.973,3.951,6.177,3.662,8.788c-0.137,1.243-1.182,2.915-2.375,3.42
		c-2.761,1.165-1.613-2.629-1.471-3.521c0.28-1.722-0.797-5.576-1.844-6.863c-2.014-2.471-4.188-3.2-7.239-3.685
		c-7.129-1.136-14.898,1.321-18.83,7.688c-3.169,5.127-6.378,11.543-4.447,17.662c0.554,1.756,2.178,1.412,3.723,1.441
		c2.975,0.052,6.078,1.123,8.045,3.442c1.118,1.319,3.423,6.14,1.398,7.476c-3.204,2.116-6.011,1.051-9.057-0.91
		c-2.193-1.409-3.603-5.64-5.724-6.416c-2.585-0.945-7.96,1.543-10.355,2.475C218.548,167.858,207.763,182.377,206.734,198.694
		C207.118,205.158,206.807,197.539,206.734,198.694z M249.811,159.207c-3.796,1.64,4.32,5.349,6.312,5.299
		C255.513,160.788,253.552,159.458,249.811,159.207C249.592,159.299,252.422,159.381,249.811,159.207z"/>
	<path fill-rule="evenodd" clip-rule="evenodd" stroke="#000000" stroke-width="3" stroke-miterlimit="10" d="M393.985,160.017
		c-3.321-0.125-0.062-5.783,1.681-5.479C399.538,155.211,396.879,160.125,393.985,160.017
		C392.902,159.977,395.382,160.07,393.985,160.017z"/>
	<path fill-rule="evenodd" clip-rule="evenodd" fill="none" stroke="#000000" stroke-width="3" stroke-miterlimit="10" d="
		M312.438,71.292c0.138-13.421,3.047-28.149,9.422-40.04c3.029-5.652,6.962-11.108,12.054-15.08c1.92-1.5,4.885-3.908,7.525-3.645
		c2.206,0.219,3.128,4.507,3.656,6.154c4.12,12.889-2.062,24.751-8.938,35.445c-3.536,5.499-6.454,11.278-10.128,16.701
		c-3.484,5.141-6.486,10.863-12.121,13.988C312.704,80.507,312.797,75.748,312.438,71.292
		C312.52,63.274,312.748,75.154,312.438,71.292z"/>
	<path fill-rule="evenodd" clip-rule="evenodd" fill="none" stroke="#000000" stroke-width="3" stroke-miterlimit="10" d="
		M154.469,75.611c-3.379,5.248-6.618,10.599-9.599,16.083c-2.743,5.048-5.846,8.355-9.826,12.364
		c-3.292,3.32-7.803,7.847-13.005,5.337c-5.347-2.579-3.417-10.729-2.445-15.312c2.393-11.263,10.463-21.74,20.698-27
		c3.424-1.761,10.191-1,10.774,3.857c0.193,1.604-0.944,3.745-0.321,5.163C151.499,77.812,153.697,76.519,154.469,75.611z"/>
	<path fill-rule="evenodd" clip-rule="evenodd" fill="none" stroke="#000000" stroke-width="3" stroke-miterlimit="10" d="
		M264.62,87.641c0.479-6.053,2.614-11.877,6.524-16.563c1.836-2.202,13.128-9.721,11.908-1.433
		c-1.117,7.603-4.684,12.381-9.095,18.532c-0.803,1.118-4.541,7.778-6.137,7.504C265.293,95.25,264.489,89.503,264.62,87.641
		C265.201,80.312,264.424,90.453,264.62,87.641z"/>
	<path fill-rule="evenodd" clip-rule="evenodd" fill="none" stroke="#000000" stroke-width="3" stroke-miterlimit="10" d="
		M235.954,67.731c-0.721,2.739-4.735,17.77-6.816,9.169c-0.728-3.008-0.657-7.65,1.529-10.115
		C233.395,63.712,234.998,64.009,235.954,67.731C235.612,69.024,235.739,66.899,235.954,67.731z"/>
	<path fill-rule="evenodd" clip-rule="evenodd" fill="none" stroke="#000000" stroke-width="3" stroke-miterlimit="10" d="
		M33.382,133.625c-7.346-1.996-15.243-3.659-20.869-9.146c-5.698-5.556-9.641-13.979-6.984-21.724
		c2.858-8.332,6.424-14.251,13.574-19.664c6.654-5.038,14.817-5.789,22.917-4.742c8.35,1.08,15.419,2.637,22.31,7.674
		c2.602,1.904,7.454,3.551,9.281,6.206c1.386,2.015-2.581,8.679-3.462,10.616c-3.48,7.653-8.132,15.599-14.403,21.283
		C49.08,130.173,41.938,131.828,33.382,133.625C30.767,132.914,36.825,132.902,33.382,133.625z"/>
	<path fill-rule="evenodd" clip-rule="evenodd" fill="none" stroke="#000000" stroke-width="3" stroke-miterlimit="10" d="
		M114.343,11.787c-0.877,4.215-2.062,8.247-3.418,12.338c-1.478,4.461-3.504,7.193-6.306,10.89c-2.48,3.271-5.381,6.806-9.076,8.822
		c-0.693,0.379-4.611,2.683-5.002,2.012c-0.639-1.092,0.851-4.626,1.152-5.827c2.185-8.728,4.723-18.205,8.917-26.208
		c1.582-3.015,3.878-6.862,7.034-8.408C112.059,3.243,113.137,8.705,114.343,11.787C113.945,13.704,113.785,10.357,114.343,11.787z"
		/>
	<path fill-rule="evenodd" clip-rule="evenodd" fill="none" stroke="#000000" stroke-width="3" stroke-miterlimit="10" d="
		M331.594,174.955c-0.257,1.672-1.823,11.059-4.003,6.215c-1.547-3.438,0.184-6.457,3.37-7.876
		C331.171,173.845,331.384,174.4,331.594,174.955C331.189,177.583,331.384,174.4,331.594,174.955z"/>
	<path fill-rule="evenodd" clip-rule="evenodd" fill="none" stroke="#000000" stroke-width="3" stroke-miterlimit="10" d="
		M446.492,44.147c-0.414-0.435-0.828-0.87-1.243-1.306C446.063,42.165,447.111,43.307,446.492,44.147
		C446.028,43.66,446.659,43.922,446.492,44.147z"/>
	<path fill-rule="evenodd" clip-rule="evenodd" fill="none" stroke="#000000" stroke-width="3" stroke-miterlimit="10" d="
		M249.811,159.207c3.741,0.251,5.702,1.581,6.312,5.299C254.131,164.555,246.015,160.846,249.811,159.207
		C252.422,159.381,249.592,159.299,249.811,159.207z"/>
</g>
</svg>
