<?xml version="1.0" encoding="utf-8"?>
<!-- Generator: Adobe Illustrator 16.0.4, SVG Export Plug-In . SVG Version: 6.00 Build 0)  -->
<!DOCTYPE svg PUBLIC "-//W3C//DTD SVG 1.1//EN" "http://www.w3.org/Graphics/SVG/1.1/DTD/svg11.dtd">
<svg version="1.1" id="Layer_1" xmlns="http://www.w3.org/2000/svg" xmlns:xlink="http://www.w3.org/1999/xlink" x="0px" y="0px"
	 width="508.699px" height="234.647px" viewBox="0 0 508.699 234.647" enable-background="new 0 0 508.699 234.647"
	 xml:space="preserve">
<g>
	<path fill="#FFFFFF" d="M119.284,112.757c1.771,0.921,3.586,1.389,5.395,1.388c5.879-0.001,10.625-4.784,14.812-9.004
		c0.917-0.924,1.803-1.816,2.659-2.618c1.364,3.92,3.68,8.378,9.455,8.377c0.989,0,2.071-0.132,3.218-0.393
		c3.474-0.791,6.967-2.449,9.345-4.436c0.318-0.266,0.635-0.679,1.266-1.514c0.232-0.308,0.597-0.789,0.979-1.263
		c-0.022,0.294-0.045,0.567-0.063,0.779c-0.097,1.162-0.145,1.789-0.063,2.243c0.276,1.545,1.05,2.961,2.239,4.093
		c1.378,1.312,2.901,1.978,4.528,1.978c2.122,0,4.043-1.102,5.901-2.166l0.774-0.44c4.226-2.368,7.248-5.055,10.119-8.059
		c-0.899,3.265-0.836,6.526,2.355,8.089c1.707,0.835,3.5,1.259,5.329,1.259c3.872,0,7.443-1.873,10.486-3.627
		c5.506-3.176,10.412-6.994,14.998-11.673c2.032-2.072,3.956-4.277,5.817-6.411c0.309-0.354,0.581-0.683,0.829-0.983
		c0.682-0.825,1.113-1.331,1.381-1.331c0.167,0,0.584,0.074,1.511,0.57c0.709,0.38,1.714,0.566,2.778,0.763
		c0.531,0.098,1.396,0.258,1.95,0.433c-1.409,2.683-2.129,5.564-2.088,8.369c0.068,4.773,2.236,11.133,8.122,13.348
		c1.139,0.43,2.417,0.646,3.796,0.646c4.6,0,9.562-2.354,13.185-4.074l0.14-0.066c2.463-1.167,4.076-2.518,5.741-4.186
		c0.663-0.664,0.93-0.699,0.925-0.699c0.173,0.021,0.69,0.43,1.034,0.7c0.438,0.345,0.982,0.773,1.646,1.176
		c8.459,5.137,20.111,3.56,33.747-4.525l0.748-0.44c2.334-1.369,4.538-2.661,6.437-4.974l0.306-0.374
		c0.147-0.181,0.31-0.38,0.462-0.561c0.077,0.153,0.167,0.342,0.27,0.571c1.967,4.39,4.493,9.47,8.32,13.865
		c7.733,8.888,19.39,14.409,30.421,14.408c0.377,0,0.756-0.006,1.134-0.019c6.709-0.227,13.667-3.242,18.979-5.844
		c0.205-0.101,0.474-0.227,0.79-0.375c5.922-2.786,11.329-5.869,10.794-9.537c-0.148-1.002-0.949-1.675-1.992-1.675
		c-1.44,0-3.642,1.362-6.956,3.716c-0.404,0.288-0.706,0.506-0.829,0.579l-1.332,0.727c-3.105,1.696-6.04,3.3-9.268,4.385
		c-8.044,2.701-15.043,2.712-22.872,0.043c-6.097-2.078-11.562-6.151-15.801-11.779c-2.453-3.253-4.371-6.629-5.701-10.033
		c-1.28-3.273-1.28-3.273,1.553-5.669c5.688-4.812,9.565-11.348,13.313-17.667l1.355-2.278c3.755-6.279,7.637-12.772,10.928-19.374
		c4.028-8.083,6.588-14.046,5.494-22.929l-0.056-0.455c-0.663-5.439-1.897-15.564-9.42-15.564c-0.659,0-1.355,0.085-2.066,0.254
		c-15.989,3.792-24.188,28.374-25.67,33.262c-2.476,8.16-3.949,16.147-4.382,23.742c-0.197,3.486-0.163,7.18,0.106,11.291
		c0.073,1.125,0.28,2.349,0.479,3.533c0.361,2.136,0.734,4.346,0.364,6.036c-0.338,1.534-3.567,4.778-5.555,6.249
		c-2.29,1.692-4.987,3.19-7.556,4.581c-4.337,2.353-9.722,3.648-15.164,3.648c-1.29,0-2.578-0.074-3.828-0.22
		c-1.103-0.128-4.995-1.458-6.042-2.402c2.279-2.773,4.222-5.308,5.932-7.735c0.597-0.848,1.213-1.692,1.832-2.539
		c3.688-5.051,7.503-10.274,7.904-16.951c0.218-3.617-1.021-5.741-2.1-6.886c-1.384-1.469-3.389-2.278-5.646-2.278
		c-2.373,0-4.896,0.875-7.102,2.465c-4.972,3.583-8.411,8.885-10.516,16.21c-1.14,3.982-2.185,8.608-0.146,13.123
		c0.399,0.882,0.799,1.596,1.12,2.17c1.016,1.812,1.016,1.812-0.84,3.532c-2.629,2.435-9.762,6.116-14.522,6.116
		c-0.825,0-1.526-0.113-2.083-0.336c-1.701-0.68-2.847-2.015-3.409-3.969c-1.048-3.645,0.222-8.419,2.054-10.929
		c0.032-0.044,3.085-4.667,1.955-6.893c-0.363-0.716-1.084-1.144-1.928-1.144c-0.63,0-1.333,0.224-2.213,0.703
		c-1.655,0.901-4.129,0.789-6.21-0.223c-0.26-0.126-0.584-0.327-0.658-0.568c-0.208-0.688,0.716-2.268,1.391-3.421
		c0.448-0.765,0.911-1.556,1.231-2.321l0.126-0.301c1.278-3.044,2.599-6.192,2.041-9.866c-0.525-3.455-2.964-5.688-6.213-5.688
		c-3.395,0-6.469,2.346-7.478,5.705c-0.987,3.289-2.118,8.167-0.557,12.551c0.231,0.646,0.628,1.283,1.013,1.899
		c0.386,0.619,0.915,1.466,0.918,1.872c0.004,0.533-1.138,1.849-1.625,2.41c-0.218,0.251-0.417,0.482-0.578,0.683
		c-3.728,4.681-8.669,9.284-14.685,13.679c-2.845,2.079-9.873,6.374-13.433,6.374c-1.242,0-1.438-0.498-1.554-1.101
		c-0.3-1.566,1.275-4.312,2.425-6.316c0.426-0.741,0.828-1.442,1.128-2.06c0.844-1.736,1.723-3.455,2.602-5.173
		c0.835-1.633,1.671-3.267,2.477-4.916c0.661-1.354,1.278-2.727,1.875-4.054c1.137-2.528,2.211-4.915,3.583-7.244
		c0.343-0.582,0.869-1.294,1.425-2.049c1.323-1.795,2.823-3.83,3.146-5.783c0.228-1.381,0.06-2.381-0.515-3.058
		c-0.418-0.493-1.017-0.765-1.686-0.765c-1.587,0-3.131,1.552-3.726,2.374c-1.941,2.683-3.96,5.604-5.579,8.783
		c-2.914,5.724-6.853,11.229-10.663,16.553c-0.793,1.108-1.581,2.209-2.355,3.306c-4.036,5.718-9.531,8.959-15.773,12.312
		c-0.338,0.182-0.503,0.19-0.504,0.204c-0.677-0.462-0.85-4.055-0.446-5.961c0.565-2.675,1.885-5.236,3.16-7.715l0.318-0.618
		c3.049-5.95,6.923-11.605,10.669-17.074l0.476-0.695c0.184-0.27,0.561-0.706,0.959-1.167c1.578-1.829,3.542-4.106,2.995-6.195
		c-0.367-1.392-1.61-2.403-2.958-2.403c-0.681,0-1.32,0.249-1.845,0.718c-1.664,1.481-2.998,3.377-4.289,5.21
		c-0.693,0.986-1.349,1.917-2.035,2.759c-2.371,2.914-4.238,6.249-6.044,9.474c-1.228,2.193-2.497,4.46-3.89,6.519l-0.483,0.715
		c-3.403,5.041-7.261,10.752-12.478,13.265c-3.507,1.691-6.485,1.835-7.937,0.313c-0.963-1.01-1.414-2.811-1.301-5.206
		c0.251-5.343,3.835-10.327,7.302-15.147c0.89-1.237,1.729-2.406,2.512-3.578c0.24-0.359,0.617-0.816,1.016-1.3
		c1.579-1.916,3.965-4.812,2.476-7.67c-0.433-0.833-1.188-1.31-2.07-1.31c-1.018,0-2.02,0.615-3.156,1.742
		c-0.167-1.15-0.463-2.189-0.743-2.869c-1.941-4.722-7.351-6.873-11.556-6.873c-0.492,0-0.981,0.028-1.454,0.083
		c-10.736,1.246-20.003,14.047-23.787,21.415C115.288,89.54,108.977,107.392,119.284,112.757z M140.978,68.416
		c0.863-0.444,2.059-0.698,3.283-0.698c0.795,0,1.649,0.113,2.438,0.365c2.495,0.975,2.452,2.313,2.359,5.02
		c-0.023,0.686-0.048,1.396-0.025,2.155c0.023,0.759,0.241,1.414,0.604,1.928c0.341,0.52,0.806,0.896,1.361,1.093
		c-0.141,0.226-0.272,0.443-0.411,0.667c-0.547,0.879-1.091,1.756-1.612,2.616c-0.154,0.254-0.297,0.5-0.449,0.753
		c-0.495,0.823-0.99,1.645-1.463,2.453c-0.223,0.38-0.432,0.751-0.65,1.128c-0.388,0.67-0.78,1.343-1.154,2.004
		c-0.585,1.035-1.153,2.061-1.707,3.078c-2.521,4.641-5.355,7.751-9.005,11.447c-0.792,0.663-1.542,1.379-2.271,2.078
		c-1.252,1.2-2.469,2.35-3.792,3.125c-0.504,0.28-1.016,0.518-1.536,0.687c-0.217,0.067-0.433,0.135-0.658,0.177
		c-0.019,0.004-0.037,0.005-0.056,0.009c-0.314,0.056-0.637,0.087-0.971,0.087c0,0,0,0-0.001,0c-0.525,0-1.079-0.07-1.647-0.209
		c-0.174-0.043-0.333-0.097-0.491-0.151c-0.144-0.057-0.288-0.113-0.433-0.183c-0.892-0.431-1.508-1.106-1.937-1.93
		c-0.757-1.666-0.662-4.048-0.419-6.798c0.887-10.042,5.772-19.363,13.756-26.243c0.103-0.088,0.214-0.184,0.324-0.279
		C136.463,71.092,138.662,69.606,140.978,68.416z M234.298,67.406c-0.035,0.171-0.054,0.362-0.054,0.573
		c0,0.003-0.001,0.006-0.001,0.009c0,0,0,0,0,0l0,0c0,0.097,0.005,0.188,0.016,0.275c-1.477,5.424-2.676,8.148-3.379,9.257
		c-0.085-0.238-0.182-0.555-0.283-0.974c-0.09-0.373-0.16-0.76-0.219-1.153c-0.037-0.253-0.059-0.516-0.082-0.777
		c-0.014-0.151-0.032-0.299-0.041-0.451c-0.013-0.217-0.012-0.438-0.016-0.657c-0.002-0.27-0.006-0.539,0.009-0.808
		c0.003-0.07,0.009-0.139,0.013-0.208c0.161-2.212,0.92-4.341,2.543-5.65c0.438-0.354,0.731-0.527,0.916-0.617
		C233.821,66.335,234.043,66.638,234.298,67.406z M266.152,87.441l0.043-0.539c0.038-0.36,0.1-0.711,0.15-1.066
		c0.049-0.345,0.087-0.694,0.146-1.035c0.052-0.291,0.124-0.573,0.184-0.86c0.082-0.396,0.155-0.794,0.252-1.183
		c0.061-0.24,0.139-0.471,0.204-0.708c0.118-0.426,0.23-0.856,0.367-1.273c0.062-0.188,0.139-0.367,0.203-0.553
		c0.161-0.457,0.319-0.915,0.501-1.36c0.04-0.097,0.089-0.188,0.13-0.284c0.223-0.525,0.452-1.046,0.705-1.552
		c0.029-0.058,0.064-0.112,0.094-0.17c0.273-0.538,0.56-1.068,0.868-1.583c0.093-0.155,0.2-0.301,0.296-0.454
		c0.257-0.409,0.513-0.82,0.792-1.212c0.383-0.54,0.786-1.064,1.209-1.571c1.072-1.286,6.016-4.696,8.54-4.696
		c0.173,0,0.48,0.02,0.596,0.154c0.124,0.144,0.231,0.528,0.208,1.184c-0.009,0.218-0.031,0.467-0.072,0.747
		c-1.03,7.011-4.295,11.559-8.428,17.316l-0.401,0.559c-0.042,0.058-0.091,0.13-0.147,0.215c-0.168,0.254-0.398,0.62-0.672,1.058
		c-1.48,2.368-2.616,4.006-3.394,4.898c-0.259,0.298-0.478,0.513-0.656,0.644c-0.054-0.036-0.107-0.082-0.161-0.138
		c-0.809-0.828-1.629-3.726-1.603-5.965L266.152,87.441z M314.064,67.415c0.528-10.57,2.718-20.77,6.293-29.45
		c0.027-0.067,0.056-0.133,0.084-0.199c0.249-0.6,0.505-1.192,0.768-1.777c0.067-0.15,0.137-0.297,0.204-0.446
		c0.23-0.502,0.464-1,0.703-1.491c0.116-0.237,0.236-0.47,0.354-0.705c0.202-0.401,0.404-0.801,0.612-1.193
		c0.141-0.264,0.287-0.521,0.431-0.782c0.221-0.401,0.442-0.798,0.668-1.188c0.341-0.586,0.685-1.157,1.031-1.713
		c0.082-0.132,0.164-0.268,0.247-0.398c0.368-0.581,0.741-1.139,1.117-1.687c0.104-0.152,0.208-0.308,0.313-0.458
		c0.316-0.453,0.639-0.884,0.961-1.314c0.186-0.247,0.371-0.498,0.559-0.738c0.239-0.306,0.482-0.596,0.724-0.89
		c0.276-0.334,0.553-0.67,0.834-0.99c0.173-0.197,0.349-0.384,0.522-0.575c0.344-0.375,0.688-0.748,1.037-1.103
		c0.149-0.151,0.302-0.294,0.452-0.442c0.365-0.357,0.732-0.709,1.104-1.044c0.181-0.162,0.364-0.314,0.546-0.471
		c0.34-0.292,0.681-0.582,1.026-0.855c0.458-0.362,0.919-0.717,1.39-1.048c1.92-1.349,3.386-2.033,4.357-2.033
		c0.868,0,1.936,0.56,3.264,4.713c0.127,0.398,0.244,0.796,0.352,1.192c0.029,0.112,0.054,0.224,0.082,0.335
		c0.072,0.283,0.146,0.567,0.208,0.849c0.035,0.159,0.062,0.317,0.094,0.476c0.047,0.234,0.098,0.468,0.138,0.702
		c0.029,0.166,0.05,0.33,0.075,0.495c0.034,0.227,0.072,0.454,0.102,0.68c0.019,0.149,0.03,0.298,0.047,0.447
		c0.026,0.242,0.055,0.484,0.074,0.725c0.01,0.12,0.014,0.239,0.021,0.358c0.019,0.273,0.037,0.545,0.047,0.817
		c0.003,0.073,0.002,0.145,0.004,0.218c0.01,0.321,0.016,0.642,0.014,0.961c-0.001,0.017-0.002,0.034-0.002,0.051
		c-0.097,9.647-5.347,18.687-10.91,27.231c-1.119,1.718-2.176,3.561-3.234,5.48c-0.139,0.238-0.283,0.481-0.42,0.718
		c-1.756,3.029-3.57,6.161-5.568,9.111c-0.584,0.861-1.154,1.739-1.727,2.618c-2.443,3.759-4.77,7.338-8.168,9.808
		c-0.072-0.387-0.125-0.782-0.184-1.176c-0.033-0.232-0.077-0.459-0.106-0.693c-0.041-0.323-0.069-0.65-0.103-0.976
		c-0.033-0.316-0.072-0.63-0.099-0.948c-0.002-0.017-0.003-0.035-0.004-0.052c-0.106-1.268-0.175-2.544-0.242-3.805
		c-0.045-0.837-0.089-1.671-0.144-2.497c0.085-0.469,0.084-1.013,0.082-1.551c0-0.067-0.001-0.125-0.001-0.19
		c0-0.078,0-0.156-0.001-0.234c-0.003-0.753-0.015-1.381-0.081-1.872C314.025,68.082,314.047,67.75,314.064,67.415z"/>
	<path fill="#FFFFFF" d="M220.06,135.971c2.38-3.169,3.921-6.39,5.418-9.685c0.388-0.851,1.189-2.986,0.265-4.422
		c-0.429-0.667-1.157-1.049-1.997-1.049c-0.611,0-1.291,0.194-2.077,0.595c-2.166,1.103-3.088,3.427-3.901,5.479
		c-0.306,0.772-0.596,1.502-0.915,2.068c-1.439,2.55-3.302,5.062-5.694,7.68c-9.536,10.438-21.097,14.488-36.601,17.534
		c-0.523-0.091-1.169-0.091-1.895-0.091c-1.02,0-1.541,0.025-1.818,0.051c-5.282-0.342-9.762-1.363-14.089-3.209
		c-2.423-1.032-4.858-1.871-7.214-2.683c-4.231-1.457-8.227-2.833-12.086-5.229c-15.607-9.7-27.132-18.722-36.269-28.39
		c-2.563-2.713-5.055-5.601-7.463-8.394c-2.833-3.283-5.762-6.679-8.858-9.852c-0.473-0.484-1.097-1.016-1.758-1.577
		c-1.429-1.215-3.588-3.051-3.725-4.272c-0.171-1.51,0.678-3.986,1.36-5.975c0.34-0.993,0.662-1.93,0.872-2.757
		c0.481-1.889,0.952-3.782,1.424-5.676c1.527-6.131,3.106-12.47,4.994-18.582c0.153-0.495,0.294-1.021,0.438-1.561
		c0.561-2.104,1.14-4.279,2.734-5.198c1.008-0.581,2.024-1.032,3.099-1.51c1.8-0.8,3.662-1.627,5.439-3.085
		c4.985-4.087,11.097-9.578,14.142-15.809c0.94-1.926,1.462-4.038,1.966-6.08c0.324-1.311,0.629-2.549,1.035-3.723
		c1.062-3.078,2.382-6.907,1.606-11.003C117.422,3.935,113.512,0,108.983,0c-2.249,0-4.532,0.962-6.602,2.782
		c-5.188,4.557-7.724,11.625-9.875,18.473c-2.207,7.027-4.313,14.204-6.351,21.145l-0.833,2.839c-0.12,0.408-0.485,1.65-3.481,1.65
		c-3.564,0-8.593-1.807-10.927-2.946c-5.386-2.628-9.828-7.122-12.506-12.651c-1.385-2.857-2.209-5.799-2.385-8.507
		c-0.01-0.151,0.02-0.585,0.045-0.968c0.129-1.906,0.307-4.517-1.016-5.933c-0.624-0.667-1.448-0.98-2.462-0.866
		c-0.975,0.108-1.795,0.603-2.373,1.43c-1.942,2.781-0.525,9.096-0.221,10.333c1.159,4.725,3.095,8.874,5.755,12.331
		c5.52,7.175,12.694,11.777,20.2,12.958c0.323,0.051,0.72,0.073,1.288,0.073c0.494,0,1.076-0.018,1.698-0.038
		c0.678-0.021,1.404-0.044,2.111-0.044c1.291,0,2.006,0.086,2.395,0.168c-0.491,1.699-0.992,3.395-1.493,5.09
		c-0.872,2.951-1.773,6.002-2.605,9.026c-0.759,2.761-1.465,5.577-2.147,8.3c-0.589,2.351-1.179,4.703-1.807,7.043
		c-0.124,0.459-0.229,1.049-0.352,1.733c-0.161,0.899-0.504,2.81-0.91,3.676c-0.571-0.264-1.534-0.884-2.874-1.853
		c-0.305-0.221-0.545-0.393-0.685-0.481c-1.279-0.814-2.544-1.722-3.767-2.601c-2.225-1.599-4.526-3.252-7.127-4.506
		c-3.498-1.686-7.303-2.353-10.982-2.998c-1.017-0.178-2.031-0.356-3.034-0.555c-3.129-0.62-6.244-0.934-9.257-0.934
		c-7.471,0-14.202,1.963-19.465,5.676C8.308,84.935,2.861,92.278,1.188,100.082l-0.131,0.608c-1.034,4.798-1.781,8.264,0.09,13.505
		c1.188,3.325,3.257,6.933,6.151,10.723c5.664,7.417,15.928,12.023,26.788,12.022c5.223,0,10.199-1.084,14.39-3.135
		c14.249-6.971,21.445-20.301,27.596-33.356l0.418-0.896c0.319-0.687,0.646-1.389,0.894-1.834c0.514,0.46,1.301,1.322,1.918,1.996
		c0.859,0.94,1.723,1.876,2.587,2.812c1.547,1.675,3.094,3.351,4.612,5.054l0.222,0.248c4.872,5.459,9.909,11.103,15.169,16.396
		c4.955,4.986,11.056,9.815,19.201,15.198c1.348,0.89,2.687,1.8,4.027,2.711c4.421,3.005,8.993,6.111,13.925,8.496
		c13.06,6.306,23.275,9.117,33.124,9.117c3.953,0,7.858-0.486,11.607-1.446C200.467,154.033,211.657,147.146,220.06,135.971z
		 M101.835,14.722c0.266-0.478,0.518-0.972,0.799-1.432l0.16-0.263c0.859-1.406,1.832-2.993,2.983-4.281
		c0.777-0.834,1.617-1.549,2.526-1.994c0.461-0.226,0.865-0.34,1.199-0.34c1.36,0,2.227,2.487,2.924,4.485
		c0.041,0.117,0.081,0.232,0.121,0.346c-0.042,0.184-0.065,0.391-0.065,0.623c0,0.347,0.045,0.635,0.121,0.873
		c-0.123,0.547-0.252,1.088-0.384,1.626c-0.03,0.124-0.062,0.248-0.093,0.373c-0.11,0.441-0.222,0.878-0.337,1.311
		c-0.03,0.112-0.058,0.222-0.088,0.334c-0.138,0.516-0.279,1.025-0.422,1.528c-0.064,0.227-0.133,0.459-0.201,0.69
		c-0.074,0.255-0.148,0.511-0.223,0.762c-0.107,0.36-0.219,0.727-0.333,1.096c-0.032,0.103-0.063,0.207-0.095,0.309
		c-0.136,0.436-0.275,0.877-0.419,1.327c-0.007,0.023-0.015,0.046-0.022,0.069c-0.157,0.487-0.318,0.983-0.486,1.488
		c-0.996,3.006-2.248,5.173-3.968,7.601c-0.176,0.231-0.353,0.462-0.532,0.695c-0.588,0.767-1.184,1.573-1.77,2.41
		c-1.664,2.184-3.554,4.517-5.769,6.346c-1.315,1.004-2.735,1.903-4.157,2.596c-0.044,0.021-0.159,0.085-0.323,0.183
		c-0.238,0.141-0.445,0.259-0.636,0.366c-0.018,0.009-0.035,0.017-0.052,0.025c0.411-1.707,0.846-3.481,1.306-5.264l0.154-0.597
		c0.193-0.749,0.392-1.514,0.591-2.279C96.261,28.457,98.521,21.11,101.835,14.722z M68.784,102.226
		c-0.173,0.38-0.347,0.749-0.521,1.121c-0.063,0.131-0.125,0.258-0.188,0.39c-4.244,8.711-8.553,14.922-13.484,19.411
		c-5.663,5.072-11.599,6.864-19.683,8.619c-0.085-0.031-0.194-0.049-0.293-0.073c-0.08-0.019-0.147-0.045-0.235-0.059
		c-0.201-0.03-0.425-0.048-0.677-0.048c-0.275,0-0.527,0.017-0.758,0.05c-0.031,0.005-0.054,0.016-0.084,0.021
		c-0.193,0.032-0.377,0.071-0.537,0.129c-0.203-0.054-0.407-0.108-0.61-0.162c-6.613-1.762-13.435-3.581-18.25-8.32
		c-0.022-0.022-0.045-0.047-0.068-0.069c-0.303-0.301-0.599-0.611-0.885-0.937c-2.117-2.405-4.003-5.547-5.337-8.825
		c-0.951-2.799-1.306-5.798-0.636-8.771c0.012-0.043,0.021-0.086,0.033-0.129c0.028-0.119,0.07-0.237,0.101-0.355
		c0.137-0.47,0.286-0.951,0.444-1.443c2.992-8.529,6.634-13.747,12.893-18.486c4.308-3.261,9.538-4.847,15.987-4.847
		c1.833,0,3.795,0.133,5.833,0.397c7.79,1.007,13.946,2.439,19.758,6.137c0.521,0.355,1.043,0.716,1.572,1.083
		c0.599,0.416,1.198,0.833,1.803,1.242c0.509,0.345,1.248,0.728,2.104,1.171c3.653,1.891,5.413,3.205,5.23,3.907
		c-0.664,2.56-1.737,5.117-3.012,7.835C69.076,101.619,68.902,101.964,68.784,102.226z"/>
	<path fill="#FFFFFF" d="M439.073,207.785c-3.726,2.876-7.216,5.578-11.573,5.176l-0.008,0.092c-0.042,0-0.087,0.001-0.137,0.001
		v-0.1c-0.024,0-0.05,0-0.074,0c-5.759,0-13.154-1.94-15.045-7.408c-1.353-3.911,0.773-11.068,3.527-15.045
		c1.445-2.088,3.475-3.556,5.622-5.109c0.428-0.31,0.857-0.62,1.283-0.937c0.554-0.41,1.17-0.937,1.822-1.494
		c1.835-1.565,4.393-3.755,6.056-3.606c0.403,0.03,1.453,0.963,2.08,1.52c1.296,1.15,2.635,2.339,4.201,2.339
		c0.704,0,1.371-0.251,1.928-0.725c0.727-0.616,1.121-1.419,1.143-2.321c0.05-2.175-2.158-4.23-3.477-5.459l-0.339-0.318
		c-1.474-1.41-3.354-2.126-5.591-2.126c-4.53,0-9.599,2.992-12.562,5.553c-2.094,1.809-3.779,3.844-5.409,5.813
		c-2.025,2.445-3.938,4.755-6.549,6.615c-0.562,0.401-1.58,1.277-2.988,2.491c-4.898,4.222-16.371,14.108-21.752,14.108
		c-0.993,0-1.955-0.301-2.271-2.484c-0.822-5.7,1.929-9.307,5.114-13.483c1.042-1.365,2.119-2.777,3.1-4.311
		c0.247-0.385,0.568-0.818,0.913-1.285c1.516-2.054,3.401-4.609,2.778-7.196c-0.335-1.396-1.305-2.23-2.593-2.23
		c-1.797,0-3.78,1.674-5.655,3.484l-0.121,0.116c-2.81,2.702-4.355,6.065-5.851,9.317l-0.341,0.742
		c-1.2,2.586-2.822,4.102-5.067,6.198l-0.206,0.192c-0.767,0.716-1.54,1.458-2.324,2.211c-3.861,3.706-7.854,7.539-12.444,9.564
		c-1.895,0.837-6.114,2.254-9.91,2.254c-5.005,0-5.669-2.45-5.887-3.255c-1.495-5.518,3.687-11.966,5.309-13.81
		c0.273-0.31,0.654-0.414,1.306-0.573c0.718-0.174,1.61-0.392,2.34-1.129c0.518-0.525,0.767-1.097,0.738-1.7
		c-0.042-0.896-0.651-1.406-1.015-1.712c-0.088-0.073-0.227-0.187-0.222-0.146c-0.532-2.163-1.856-2.485-2.598-2.485
		c-1.243,0-2.34,0.905-3.399,1.78c-0.401,0.332-1.072,0.887-1.26,0.956c-2.574,0.298-5.276-0.33-7.712-1.789
		c-1.529-0.917-1.529-0.917-0.607-2.702c0.262-0.506,0.558-1.08,0.836-1.746c1.38-3.312,1.627-8.703-0.206-11.452
		c-0.78-1.172-1.92-1.816-3.208-1.816c-1.519,0-3.142,0.856-4.963,2.618c-2.552,2.471-3.804,5.416-3.526,8.295
		c0.121,1.246,0.801,2.543,1.521,3.916c0.568,1.083,1.52,2.896,1.265,3.451c-2.368,5.145-8.484,9.993-13.399,13.89l-1.512,1.203
		c-6.036,4.836-11.295,7.331-16.056,7.627c-0.421,0-2.233-0.397-3.433-0.661c-2.34-0.513-3.822-0.824-4.673-0.824
		c-1.258,0-1.655,0.782-1.768,1.116c-0.363,1.08-0.269,2.131,0.273,3.04c1.167,1.954,4.022,2.682,6.663,3.136
		c5.143,0.878,11.471-1.293,18.68-6.412c6.9-4.899,12.475-9.977,17.041-15.521c0.512-0.622,0.919-1.174,1.267-1.645
		c0.36-0.488,0.809-1.097,0.933-1.179c0.117,0,0.53,0.085,1.827,0.874c2.302,1.402,4.689,1.821,7.005,2.196
		c-0.215,0.468-0.431,0.927-0.644,1.378c-1.627,3.454-3.165,6.717-3.033,11.398c0.178,6.289,6.413,9.31,12.514,9.514
		c10.306,0.331,18.492-6.757,25.728-12.999c0.094-0.081,0.188-0.162,0.282-0.244c-0.009,2.671,0.474,5.464,2.737,7.638
		c1.743,1.675,4.182,2.597,6.866,2.597c2.068,0,4.127-0.567,5.796-1.596c4.692-2.886,8.736-5.851,12.021-8.812
		c0.715-0.644,1.461-1.362,2.234-2.105c1.612-1.552,3.374-3.246,5.145-4.52c-0.166,0.9-0.399,1.793-0.641,2.712
		c-0.862,3.293-1.755,6.697,0.5,10.799c2.453,4.457,7.524,7.824,13.567,9.006c1.382,0.271,2.799,0.408,4.21,0.408
		c4.188,0,8.394-1.202,12.16-3.476c6.542-3.952,9.86-7.163,10.445-10.104l0.568-2.864l-2.659,1.206
		C443.357,204.478,441.179,206.159,439.073,207.785z M328.823,180.225c-0.384-1.015-0.408-1.977-0.069-2.864
		c0.098-0.254,0.229-0.498,0.383-0.733c0.022-0.034,0.04-0.07,0.064-0.104c0.011-0.016,0.023-0.029,0.034-0.045
		c0.179-0.249,0.386-0.486,0.624-0.707c-0.001,0.039-0.001,0.077-0.001,0.117c0,0.085,0.005,0.167,0.015,0.245
		C329.543,177.894,329.161,179.323,328.823,180.225z"/>
	<path fill="#FFFFFF" d="M508.369,47.938c-0.344-1.492-3.042-5.145-5.478-5.145c-0.529,0-2.279,0.205-2.572,2.839
		c-0.146,1.293,0.571,2.358,1.264,3.389c0.595,0.884,1.156,1.719,1.088,2.503c-0.402,4.605-3.705,9.958-8.03,13.017
		c-4.286,3.03-8.78,4.382-14.57,4.382c-1.67,0-3.471-0.113-5.507-0.345c-6.333-0.722-11.187,0.516-15.145,3.81
		c-2.838,2.362-5.399,7.39-4.589,11.393c0.348,1.713,1.453,3.964,4.751,4.965c0.362,0.11,0.775,0.166,1.227,0.166
		c1.604,0,3.94-0.745,5.299-2.167c0.756-0.791,1.132-1.714,1.087-2.671c-0.094-1.954-1.272-2.65-2.345-2.65
		c-0.864,0-1.717,0.438-2.54,0.861c-0.334,0.171-0.849,0.436-1.16,0.538c-0.899-0.982-0.825-1.773-0.65-2.363
		c0.826-2.777,5.732-5.551,8.074-5.998c0.935-0.178,2.541-0.368,4.249-0.368c1.776,0,3.206,0.214,3.944,0.588
		c0.294,0.504,0.264,2.7-0.562,5.695c-1.973,7.161-9.052,15.032-12.003,18.083c-4.782,4.943-11.35,7.418-17.667,9.529
		c-2.302,0.77-4.748,1.16-7.271,1.16c-9.758,0-20.006-5.836-25.501-14.521c-5.493-8.681-6.526-24.338,4.185-38.201
		c4.146-5.364,9.835-9.7,16.104-12.245c1.617-0.656,2.894-1.174,3.881-1.174c0.622,0,1.43,0.176,2.71,1.479
		c0.229,0.234,0.484,0.518,0.76,0.823c1.452,1.612,3.44,3.819,5.818,3.819c0.946,0,1.821-0.343,2.602-1.019
		c1.544-1.34,2.282-2.806,2.194-4.358c-0.103-1.813-1.361-3.562-3.741-5.194c-0.728-0.501-1.644-0.8-2.528-1.09
		c-1.098-0.359-2.343-0.767-2.421-1.354c-0.788-5.912-0.021-12.897,4.497-14.772c1.288-0.535,2.564-0.806,3.793-0.806
		c3.286,0,6.072,1.97,7.644,5.405c0.635,1.387,1.562,4.03,0.646,6.157c-0.63,1.463-0.195,2.485,0.12,2.964
		c0.491,0.745,1.34,1.19,2.272,1.19c1.422,0,2.638-0.966,3.098-2.462c2.259-7.347-1.992-16.229-8.919-18.636
		c-1.433-0.497-2.994-0.75-4.643-0.75c-4.977,0-11.141,2.548-12.916,8.141c-1.236,3.895-2.311,8.091-1.806,12.386
		c0.16,1.365-0.016,1.646-0.021,1.654c-0.121,0.123-0.759,0.292-1.224,0.417c-0.526,0.14-1.182,0.315-1.918,0.585
		c-6.428,2.361-11.228,6.035-16.833,10.591c-11.123,9.038-16.348,28.801-11.408,43.157c4.407,12.812,15.875,21.344,30.975,23.215
		c0.638,0.304,1.712,0.417,3.408,0.417c0.15,0,0.288-0.015,0.414-0.04c0.246,0.015,0.495,0.022,0.748,0.022
		c4.142,0,8.624-1.98,12.501-3.836c0.899-0.431,1.834-0.852,2.78-1.278c3.327-1.5,6.769-3.052,9.572-5.341
		c5.595-4.571,9.569-11.249,13.075-17.14l0.41-0.688c1.577-2.647,3.188-5.847,3.178-9.509c-0.003-1.74,0.015-1.744,0.941-1.953
		c6.709-1.517,13.577-3.722,18.355-9.542C507.519,59.019,509.582,53.222,508.369,47.938z"/>
	<path fill="#FFFFFF" d="M265.706,123.852c-1.652,0-3.272,0.197-4.815,0.587c-7.208,1.823-12.453,5.725-15.588,11.596
		c-1.947,3.639-3.193,6.69-3.922,9.605c-0.462,1.854-0.687,3.672-0.667,5.404c0.007,0.607,0.14,1.27,0.269,1.91
		c0.115,0.573,0.303,1.504,0.228,1.905c-0.776,0.771-4.831,1.813-6.583,2.264c-1.311,0.337-2.347,0.604-2.979,0.856
		c-4.151,1.659-7.174,3.308-9.803,5.346c-5.576,4.322-11.131,9.132-14.007,15.015c-7.796,15.957-7.157,31.628,1.751,42.996
		c6.53,8.335,17.312,13.311,28.843,13.311c4.024,0,7.938-0.604,11.635-1.795c25.267-8.147,27.671-22.267,27.532-27.96l-0.083-3.375
		l-2.449,2.324c-2.023,1.919-3.162,4.249-4.264,6.502c-0.795,1.626-1.545,3.161-2.605,4.552c-2.154,2.828-4.877,5.348-8.093,7.49
		c-7.181,4.789-16.59,7.494-23.664,6.744c-7.012-0.74-15.795-4.935-20.43-9.757c-4.235-4.409-6.792-10.636-7.599-18.508
		c-0.032-0.987-0.059-1.771-0.163-2.363c1.1-15.645,11.338-29.438,26.152-35.194c0.318-0.124,0.687-0.274,1.094-0.44
		c1.968-0.802,5.261-2.144,7.335-2.144c0.448,0,0.719,0.065,0.868,0.119c0.667,0.244,1.518,1.519,2.269,2.643
		c0.918,1.375,1.868,2.797,3.159,3.627c1.773,1.142,3.909,2.309,6.298,2.309c1.503,0,2.982-0.474,4.396-1.408
		c0.548-0.361,1.241-1.068,1.429-2.38c0.38-2.654-1.613-6.261-2.509-7.317c-2.086-2.46-5.426-3.907-9.161-3.973l-0.244-0.002
		l-0.964,0.012c-0.986,0-1.021-0.11-1.113-0.402c-1.755-5.561,1.372-11.697,4.292-16.423c2.801-4.536,8.097-7.244,14.167-7.244
		c1.052,0,2.112,0.083,3.151,0.249c2.853,0.453,4.611,1.064,6.311,3.149c0.802,0.985,1.729,4.434,1.526,5.681
		c-0.014,0.089-0.041,0.212-0.072,0.358c-0.332,1.563-0.581,3.183,0.307,4.278c0.711,0.879,1.887,1.098,3.303,0.503
		c1.795-0.76,3.101-2.999,3.281-4.637c0.381-3.444-2.737-8.297-3.971-9.876C276.557,126.146,271.38,123.852,265.706,123.852z
		 M253.79,162.339c-1.002-0.421-2.067-0.979-2.765-1.482C252.347,161.09,253.215,161.532,253.79,162.339z"/>
	<path fill="#FFFFFF" d="M393.655,161.497l0.17,0.016c0.229,0.021,0.438,0.021,0.599,0.021l1.473,0.001l0.008-0.421
		c1.755-0.795,3.038-2.63,3.184-4.313c0.165-1.909-1.077-3.377-3.164-3.74c-0.13-0.022-0.262-0.034-0.397-0.034
		c-2.167,0-4.43,3.22-4.473,5.533C391.023,160.171,392.057,161.323,393.655,161.497z"/>
</g>
</svg>
